<?xml version="1.0" encoding="UTF-8"?>
<svg width="24px" height="24px" viewBox="0 0 24 24" version="1.1" xmlns="http://www.w3.org/2000/svg">
    <g stroke="none" stroke-width="1" fill="none" fill-rule="evenodd">
        <!-- Book Cover -->
        <path d="M19,2 L5,2 C3.9,2 3,2.9 3,4 L3,20 C3,21.1 3.9,22 5,22 L19,22 C20.1,22 21,21.1 21,20 L21,4 C21,2.9 20.1,2 19,2 Z" fill="#2563EB"/>
        
        <!-- Book Spine -->
        <path d="M5,2 L5,22 L8,22 L8,2 L5,2 Z" fill="#1D4ED8"/>
        
        <!-- Left Page -->
        <path d="M8,3 L8,21 L12,21 L12,3 L8,3 Z" fill="#FFFFFF" fill-opacity="0.9"/>
        
        <!-- Right Page -->
        <path d="M12,3 L12,21 L19,21 L19,3 L12,3 Z" fill="#FFFFFF" fill-opacity="0.9"/>
        
        <!-- Page Lines Left -->
        <path d="M9,6 L11,6 M9,9 L11,9 M9,12 L11,12 M9,15 L11,15 M9,18 L11,18" stroke="#E5E7EB" stroke-width="0.5"/>
        
        <!-- Page Lines Right -->
        <path d="M13,6 L17,6 M13,9 L17,9 M13,12 L17,12 M13,15 L17,15 M13,18 L17,18" stroke="#E5E7EB" stroke-width="0.5"/>
        
        <!-- Bookmark -->
        <path d="M15,2 L15,8 L17,6 L19,8 L19,2 Z" fill="#EF4444"/>
    </g>
</svg> 